<?xml version="1.0" encoding="utf-8"?>
<!-- Generator: Adobe Illustrator 19.2.1, SVG Export Plug-In . SVG Version: 6.00 Build 0)  -->
<svg version="1.1" id="layer" xmlns="http://www.w3.org/2000/svg" xmlns:xlink="http://www.w3.org/1999/xlink" x="0px" y="0px"
	 viewBox="0 0 652 652" style="enable-background:new 0 0 652 652;" xml:space="preserve">
<style type="text/css">
	.st0{fill-rule:evenodd;clip-rule:evenodd;}
	.st1{fill:#0F90C1;}
	.st2{fill:#F58220;}
</style>
<polygon class="st0" points="246.3,268.6 277.9,268.6 277.9,349.3 301.2,349.3 348.2,268.7 396.2,348.5 400.9,339.8 361.1,268.6 
	397.4,268.6 419.7,307.8 444,268.6 474.8,268.6 413.2,376.6 336.2,376.6 336.2,349.7 357.9,349.7 347.6,326.3 319.8,376.6 
	246.3,376.6 "/>
<g>
	<path class="st0" d="M475.7,376.5v-26.8h21.7L487,326.3l-27.7,50.3h-33.8l62.2-107.9l44.2,77.3v-77.3h54.3c0,0,34.1-2.1,34.1,28.7
		v79.2h-30.9v-73.2c0-8.7-0.8-9-8.1-9c-7.8,0-17.6,0.1-17.6,0.1v82H475.7z"/>
	<path class="st0" d="M192.3,267c-30.8,0-55.7,25-55.7,55.7c0,30.8,24.9,55.7,55.7,55.7c30.8,0,55.7-24.9,55.7-55.7
		C248,291.9,223,267,192.3,267 M192.3,347.2c-13.6,0-24.6-11-24.6-24.6c0-13.6,11-24.6,24.6-24.6c13.6,0,24.6,11,24.6,24.6
		C216.8,336.2,205.8,347.2,192.3,347.2"/>
	<path class="st1" d="M139.6,268.6c-25.7,65,0,108,0,108h-29.2c0,0-25-51.9-0.9-108H139.6z"/>
	<path class="st2" d="M98.1,268.6c-18.6,59.4,0,108,0,108H68.8c0,0-18.6-50.3,0.4-108H98.1z"/>
	<path d="M58.3,268.6c-18.7,59.4-2.1,108-2.1,108H27c0,0-16.5-50.3,2.5-108H58.3z"/>
</g>
</svg>
